Format;AVI

File Size:752mb

Video:ID : 0
Format : MPEG-4 Visual
Format profile : Advanced Simple@L5
Format settings, BVOP : Yes
Format settings, QPel : No
Format settings, GMC : No warppoints
Format settings, Matrix : Custom
Codec ID : XVID
Codec ID/Hint : XviD
Duration : 1h 24mn
Bit rate : 1 110 Kbps
Width : 640 pixels
Height : 304 pixels
Display aspect ratio : 2.2:1
Frame rate : 23.976 fps
Color space : YUV
Chroma subsampling : 4:2:0
Bit depth : 8 bits
Scan type : Progressive
Bits/(Pixel*Frame) : 0.238
Stream size : 673 MiB (89%)
Writing library : XviD 1.2.1 (UTC 2008-12-04)

Audio: 1
Format : MPEG Audio
Format version : Version 1
Format profile : Layer 3
Codec ID : 55
Codec ID/Hint : MP3
Duration : 1h 24mn
Bit rate mode : Constant
Bit rate : 128 Kbps
Channel(s) : 2 channels
Sampling rate : 44.1 KHz
Stream size : 77.7 MiB (10%)
Alignment : Split accross interleaves
Interleave, duration : 42 ms (1.00 video frame)
Interleave, preload duration : 500 ms

Duration:1:24

Release Date:2011

Language:English

Rippers Notes:Video: A good friend thanks bro
Audio:Own

Okay this was a interesting project the video has a big ass chair covering a quarter of the screen and had a lot of movement and angle issues,well we fixed the movementand some
angle problems but i cant crop out the chair would cut majority of the screen so still has cropping issues,also i had to edit about 4 minutes of the movie in the middle due to the video stopped recording
you wont miss out on anything major.On to audio our audio was good a few parts are oos because i cant sync when i cant see shit (: but only about 2 3 parts for less then 10 seconds

Really was not going to do this but a lot of people wanted us to so here it is if you really want to see it atleast audio is out now for when a different source shows up anyways once again

d/l sample before bitching and you have been fore warned of all issues so your choice to d/l


College student Sara finds that her new roommate Rebecca has an obsession with her, which quickly turns violent..





================================== 
http://thepiratebay.org/user/hiest
==================================





Screens:
 
http://www.grinshare.com/img/W3XG3H.jpg